<svg width="20" height="20" viewBox="0 0 20 20" fill="none" xmlns="http://www.w3.org/2000/svg">
<path d="M16.9208 19.2306H6.92563C6.71321 19.2306 6.54102 19.0584 6.54102 18.846C6.54102 18.6336 6.71321 18.4614 6.92563 18.4614H16.9208C17.3463 18.4614 17.6924 18.1152 17.6924 17.6897V2.30993C17.6924 1.88443 17.3463 1.53827 16.9208 1.53827H6.92563C6.71321 1.53827 6.54102 1.36608 6.54102 1.15366C6.54102 0.941235 6.71321 0.769043 6.92563 0.769043H16.9208C17.7704 0.769043 18.4617 1.46027 18.4617 2.30993V17.6897C18.4617 18.5394 17.7704 19.2306 16.9208 19.2306Z" fill="#4FC5E9"/>
<path d="M4.23088 5.38435H2.69242C2.05619 5.38435 1.53857 4.86674 1.53857 4.23051C1.53857 3.59428 2.05619 3.07666 2.69242 3.07666H4.23088C4.86711 3.07666 5.38472 3.59428 5.38472 4.23051C5.38472 4.86674 4.86711 5.38435 4.23088 5.38435ZM2.69242 3.84589C2.48034 3.84589 2.3078 4.01843 2.3078 4.23051C2.3078 4.44258 2.48034 4.61512 2.69242 4.61512H4.23088C4.44296 4.61512 4.61549 4.44258 4.61549 4.23051C4.61549 4.01843 4.44296 3.84589 4.23088 3.84589H2.69242Z" fill="#4FC5E9"/>
<path d="M4.23088 9.23055H2.69242C2.05619 9.23055 1.53857 8.71293 1.53857 8.0767C1.53857 7.44047 2.05619 6.92285 2.69242 6.92285H4.23088C4.86711 6.92285 5.38472 7.44047 5.38472 8.0767C5.38472 8.71293 4.86711 9.23055 4.23088 9.23055ZM2.69242 7.69208C2.48034 7.69208 2.3078 7.86462 2.3078 8.0767C2.3078 8.28878 2.48034 8.46131 2.69242 8.46131H4.23088C4.44296 8.46131 4.61549 8.28878 4.61549 8.0767C4.61549 7.86462 4.44296 7.69208 4.23088 7.69208H2.69242Z" fill="#4FC5E9"/>
<path d="M4.23088 9.23055H2.69242C2.05619 9.23055 1.53857 8.71293 1.53857 8.0767C1.53857 7.44047 2.05619 6.92285 2.69242 6.92285H4.23088C4.86711 6.92285 5.38472 7.44047 5.38472 8.0767C5.38472 8.71293 4.86711 9.23055 4.23088 9.23055ZM2.69242 7.69208C2.48034 7.69208 2.3078 7.86462 2.3078 8.0767C2.3078 8.28878 2.48034 8.46131 2.69242 8.46131H4.23088C4.44296 8.46131 4.61549 8.28878 4.61549 8.0767C4.61549 7.86462 4.44296 7.69208 4.23088 7.69208H2.69242Z" fill="#4FC5E9"/>
<path d="M4.23088 13.0767H2.69242C2.05619 13.0767 1.53857 12.5591 1.53857 11.9229C1.53857 11.2867 2.05619 10.769 2.69242 10.769H4.23088C4.86711 10.769 5.38472 11.2867 5.38472 11.9229C5.38472 12.5591 4.86711 13.0767 4.23088 13.0767ZM2.69242 11.5383C2.48034 11.5383 2.3078 11.7108 2.3078 11.9229C2.3078 12.135 2.48034 12.3075 2.69242 12.3075H4.23088C4.44296 12.3075 4.61549 12.135 4.61549 11.9229C4.61549 11.7108 4.44296 11.5383 4.23088 11.5383H2.69242Z" fill="#4FC5E9"/>
<path d="M4.23088 13.0767H2.69242C2.05619 13.0767 1.53857 12.5591 1.53857 11.9229C1.53857 11.2867 2.05619 10.769 2.69242 10.769H4.23088C4.86711 10.769 5.38472 11.2867 5.38472 11.9229C5.38472 12.5591 4.86711 13.0767 4.23088 13.0767ZM2.69242 11.5383C2.48034 11.5383 2.3078 11.7108 2.3078 11.9229C2.3078 12.135 2.48034 12.3075 2.69242 12.3075H4.23088C4.44296 12.3075 4.61549 12.135 4.61549 11.9229C4.61549 11.7108 4.44296 11.5383 4.23088 11.5383H2.69242Z" fill="#4FC5E9"/>
<path d="M4.23088 16.9229H2.69242C2.05619 16.9229 1.53857 16.4053 1.53857 15.7691C1.53857 15.1328 2.05619 14.6152 2.69242 14.6152H4.23088C4.86711 14.6152 5.38472 15.1328 5.38472 15.7691C5.38472 16.4053 4.86711 16.9229 4.23088 16.9229ZM2.69242 15.3845C2.48034 15.3845 2.3078 15.557 2.3078 15.7691C2.3078 15.9812 2.48034 16.1537 2.69242 16.1537H4.23088C4.44296 16.1537 4.61549 15.9812 4.61549 15.7691C4.61549 15.557 4.44296 15.3845 4.23088 15.3845H2.69242Z" fill="#4FC5E9"/>
<path d="M14.6132 19.2306H4.61803C3.76838 19.2306 3.07715 18.5394 3.07715 17.6897V16.5383C3.07715 16.3259 3.24934 16.1537 3.46176 16.1537C3.67419 16.1537 3.84638 16.3259 3.84638 16.5383V17.6897C3.84638 18.1152 4.19253 18.4614 4.61803 18.4614H14.6132C15.0387 18.4614 15.3848 18.1152 15.3848 17.6897V2.30993C15.3848 1.88443 15.0387 1.53827 14.6132 1.53827H4.61803C4.19253 1.53827 3.84638 1.88443 3.84638 2.30993V3.46135C3.84638 3.67377 3.67419 3.84597 3.46176 3.84597C3.24934 3.84597 3.07715 3.67377 3.07715 3.46135V2.30993C3.07715 1.46027 3.76838 0.769043 4.61803 0.769043H14.6132C15.4628 0.769043 16.1541 1.46027 16.1541 2.30993V17.6897C16.1541 18.5394 15.4628 19.2306 14.6132 19.2306Z" fill="#4FC5E9"/>
<path d="M3.46176 15.3845C3.24934 15.3845 3.07715 15.2123 3.07715 14.9999V12.6922C3.07715 12.4798 3.24934 12.3076 3.46176 12.3076C3.67419 12.3076 3.84638 12.4798 3.84638 12.6922V14.9999C3.84638 15.2123 3.67419 15.3845 3.46176 15.3845Z" fill="#4FC5E9"/>
<path d="M3.46176 11.5384C3.24934 11.5384 3.07715 11.3661 3.07715 11.1537V8.84604C3.07715 8.63362 3.24934 8.46143 3.46176 8.46143C3.67419 8.46143 3.84638 8.63362 3.84638 8.84604V11.1537C3.84638 11.3661 3.67419 11.5384 3.46176 11.5384Z" fill="#4FC5E9"/>
<path d="M3.46176 7.69216C3.24934 7.69216 3.07715 7.51997 3.07715 7.30755V4.99985C3.07715 4.78743 3.24934 4.61523 3.46176 4.61523C3.67419 4.61523 3.84638 4.78743 3.84638 4.99985V7.30755C3.84638 7.51997 3.67419 7.69216 3.46176 7.69216Z" fill="#4FC5E9"/>
<path d="M13.4618 13.8459H7.30796C7.09553 13.8459 6.92334 13.6737 6.92334 13.4613V11.5382C6.92334 9.6295 8.47619 8.07666 10.3849 8.07666C12.2936 8.07666 13.8464 9.6295 13.8464 11.5382V13.4613C13.8464 13.6737 13.6742 13.8459 13.4618 13.8459ZM7.69257 13.0767H13.0772V11.5382C13.0772 10.0537 11.8694 8.84589 10.3849 8.84589C8.90034 8.84589 7.69257 10.0537 7.69257 11.5382V13.0767Z" fill="#4FC5E9"/>
<path d="M10.3848 8.84586C9.11238 8.84586 8.07715 7.81063 8.07715 6.53816C8.07715 5.2657 9.11238 4.23047 10.3848 4.23047C11.6573 4.23047 12.6925 5.2657 12.6925 6.53816C12.6925 7.81063 11.6573 8.84586 10.3848 8.84586ZM10.3848 4.9997C9.53653 4.9997 8.84638 5.68985 8.84638 6.53816C8.84638 7.38647 9.53653 8.07663 10.3848 8.07663C11.2332 8.07663 11.9233 7.38647 11.9233 6.53816C11.9233 5.68985 11.2332 4.9997 10.3848 4.9997Z" fill="#4FC5E9"/>
<path d="M13.4618 15.3845H7.30796C7.09553 15.3845 6.92334 15.2122 6.92334 14.9998C6.92334 14.7875 7.09553 14.6152 7.30796 14.6152H13.4618C13.6742 14.6152 13.8464 14.7875 13.8464 14.9998C13.8464 15.2122 13.6742 15.3845 13.4618 15.3845Z" fill="#4FC5E9"/>
<path d="M13.4618 16.923H7.30796C7.09553 16.923 6.92334 16.7508 6.92334 16.5384C6.92334 16.326 7.09553 16.1538 7.30796 16.1538H13.4618C13.6742 16.1538 13.8464 16.326 13.8464 16.5384C13.8464 16.7508 13.6742 16.923 13.4618 16.923Z" fill="#4FC5E9"/>
<path d="M8.84604 13.8459C8.63362 13.8459 8.46143 13.6737 8.46143 13.4613V12.3075C8.46143 12.0951 8.63362 11.9229 8.84604 11.9229C9.05847 11.9229 9.23066 12.0951 9.23066 12.3075V13.4613C9.23066 13.6737 9.05847 13.8459 8.84604 13.8459Z" fill="#4FC5E9"/>
<path d="M11.9232 13.8459C11.7108 13.8459 11.5386 13.6737 11.5386 13.4613V12.3075C11.5386 12.0951 11.7108 11.9229 11.9232 11.9229C12.1356 11.9229 12.3078 12.0951 12.3078 12.3075V13.4613C12.3078 13.6737 12.1356 13.8459 11.9232 13.8459Z" fill="#4FC5E9"/>
</svg>
