<svg width="24" height="24" fill="none" xmlns="http://www.w3.org/2000/svg"><path d="M23.115 10.571l-5.25-1.506a.703.703 0 00-.386 0l-.353.1-.283-3.25a.703.703 0 00-.7-.643H13.08V3.716A3.72 3.72 0 009.364 0a3.72 3.72 0 00-3.715 3.715v1.557H2.586a.703.703 0 00-.7.642L.38 23.236a.703.703 0 00.7.764h16.57a.703.703 0 00.277-.057l.571-.245a8.45 8.45 0 005.127-7.775v-4.676a.703.703 0 00-.51-.676zM7.055 3.715a2.311 2.311 0 012.31-2.309 2.312 2.312 0 012.309 2.31v1.556H7.055V3.715zM1.847 22.594L3.231 6.678h2.418v1.556a.703.703 0 001.406 0V6.678h4.619v1.556a.703.703 0 001.406 0V6.678h2.418l.25 2.879-3.563 1.014a.703.703 0 00-.511.676v4.676a8.45 8.45 0 003.255 6.67H1.847zm20.37-6.67a7.045 7.045 0 01-4.274 6.482l-.294.126-.294-.126a7.045 7.045 0 01-4.275-6.483v-4.145l4.59-1.306 4.547 1.305v4.146z" fill="#fff"/></svg>
