<svg width="24" height="22" fill="none" xmlns="http://www.w3.org/2000/svg"><path d="M20.983.406H3.017L0 9.041v.822c0 1.15.553 2.172 1.406 2.817v8.914h21.188v-8.915A3.524 3.524 0 0024 9.864v-.822L20.983.406zm1.323 8.051H18.24l-1.16-6.645h2.906l2.322 6.645zm-20.9 1.406h4.242c0 1.17-.951 2.121-2.12 2.121a2.123 2.123 0 01-2.122-2.12zm9.89 0c0 1.17-.95 2.121-2.12 2.121a2.123 2.123 0 01-2.121-2.12h4.242zM7.189 8.457l1.16-6.645h2.949v6.645h-4.11zm5.515 0V1.812h2.948l1.16 6.645h-4.108zm4.242 1.406c0 1.17-.951 2.121-2.12 2.121a2.123 2.123 0 01-2.122-2.12h4.242zm-12.93-8.05H6.92L5.76 8.457H1.694l2.32-6.645zm17.172 18.375H2.813v-6.87a3.523 3.523 0 003.54-1.344 3.524 3.524 0 005.648 0 3.524 3.524 0 005.648 0 3.524 3.524 0 003.54 1.344v6.87zm-.714-8.204a2.123 2.123 0 01-2.121-2.12h4.242c0 1.169-.952 2.12-2.121 2.12z" fill="#4FC5E9"/></svg>