<svg width="24" height="24" fill="none" xmlns="http://www.w3.org/2000/svg"><g clip-path="url(#clip0)" fill="#4FC5E9"><path d="M15.423 2.966A3.473 3.473 0 0012 0c-1.1 0-2.144.53-2.794 1.42a.407.407 0 10.657.48A2.656 2.656 0 0112 .814c1.308 0 2.433.974 2.617 2.266a.407.407 0 00.806-.114zm5.875 4.554l-1.22-2.035a.406.406 0 00-.35-.197H18.56a.407.407 0 000 .813h.94l.732 1.22H3.768l.732-1.22h.43a.407.407 0 000-.813h-.66a.406.406 0 00-.349.197L2.702 7.52a.407.407 0 00.349.617h17.898a.407.407 0 00.349-.617z"/><path d="M19.27 3.769a.406.406 0 00-.253-.182L13.472 2.29a.407.407 0 00-.489.303l-.418 1.788a.406.406 0 10.792.185l.326-1.391 4.753 1.112-.747 3.193a.406.406 0 10.792.185l.84-3.59a.405.405 0 00-.05-.306zm-7.055.961l-.37-3.135a.406.406 0 00-.453-.356l-6.803.804a.407.407 0 00-.356.452l.618 5.229a.407.407 0 10.808-.096l-.57-4.825 5.995-.708.323 2.73a.407.407 0 00.808-.095z"/><path d="M15.432 7.574l-.807-3.357a.408.408 0 00-.49-.3L7.58 5.491a.407.407 0 00-.3.49l.403 1.68a.406.406 0 10.791-.191l-.308-1.283 5.762-1.385.712 2.962a.407.407 0 10.791-.19z"/><path d="M21.355 7.708a.407.407 0 00-.406-.386H3.051a.407.407 0 00-.407.386l-.813 15.864a.407.407 0 00.406.428h19.525a.409.409 0 00.407-.427l-.814-15.865zM2.665 23.186l.772-15.05h17.125l.772 15.05H2.665z"/><path d="M15.05 8.95a1.221 1.221 0 100 2.442 1.221 1.221 0 00.001-2.442zm0 1.626a.407.407 0 11.002-.814.407.407 0 01-.001.814zM8.949 8.95a1.22 1.22 0 00-1.22 1.22 1.222 1.222 0 002.44 0 1.22 1.22 0 00-1.22-1.22zm0 1.626a.407.407 0 110-.814.407.407 0 010 .814z"/><path d="M15.05 10.17h-.03a.407.407 0 00-.376.563v2.08A2.647 2.647 0 0112 15.457a2.647 2.647 0 01-2.644-2.644v-2.237a.407.407 0 00-.814 0v2.237A3.461 3.461 0 0012 16.271a3.461 3.461 0 003.457-3.458v-2.237a.407.407 0 00-.406-.407z"/></g><defs><clipPath id="clip0"><path fill="#fff" d="M0 0h24v24H0z"/></clipPath></defs></svg>